<svg id="Layer_1" data-name="Layer 1" xmlns="http://www.w3.org/2000/svg" width="1920" height="1080" viewBox="0 0 1920 1080"><defs><style>.cls-1{fill:#fff;}</style></defs><title>AAAAA</title><rect width="1920" height="1080"/><path class="cls-1" d="M12.387,66.951v24H0v-39l23.288-45H38.772l23.163,45v39H49.548v-24Zm18.581-48-18.581,36H49.548Z"/><path class="cls-1" d="M86.71,66.951v24H74.323v-39l23.287-45h15.484l23.164,45v39H123.871v-24Zm18.58-48-18.58,36h37.161Z"/><path class="cls-1" d="M161.032,66.951v24H148.645v-39l23.288-45h15.484l23.164,45v39H198.194v-24Zm18.581-48-18.581,36h37.162Z"/><path class="cls-1" d="M235.355,66.951v24H222.968v-39l23.288-45h15.483l23.164,45v39H272.516v-24Zm18.58-48-18.58,36h37.161Z"/><path class="cls-1" d="M309.677,66.951v24H297.29v-39l23.288-45h15.484l23.164,45v39H346.839v-24Zm18.581-48-18.581,36h37.162Z"/><path class="cls-1" d="M384,66.951v24H371.613v-39l23.288-45h15.484l23.163,45v39H421.161v-24Zm18.581-48L384,54.951h37.161Z"/><path class="cls-1" d="M458.323,66.951v24H445.935v-39l23.288-45h15.484l23.164,45v39H495.484v-24Zm18.58-48-18.58,36h37.161Z"/><path class="cls-1" d="M532.645,66.951v24H520.258v-39l23.288-45H559.03l23.164,45v39H569.806v-24Zm18.581-48-18.581,36h37.161Z"/><path class="cls-1" d="M606.968,66.951v24H594.581v-39l23.287-45h15.484l23.164,45v39H644.129v-24Zm18.58-48-18.58,36h37.161Z"/><path class="cls-1" d="M681.29,66.951v24H668.9v-39l23.288-45h15.484l23.164,45v39H718.452v-24Zm18.581-48-18.581,36h37.162Z"/><path class="cls-1" d="M755.613,66.951v24H743.226v-39l23.288-45H782l23.164,45v39H792.774v-24Zm18.581-48-18.581,36h37.161Z"/><path class="cls-1" d="M829.935,66.951v24H817.548v-39l23.288-45H856.32l23.164,45v39H867.1v-24Zm18.581-48-18.581,36H867.1Z"/><path class="cls-1" d="M904.258,66.951v24H891.871v-39l23.288-45h15.484l23.163,45v39H941.419v-24Zm18.581-48-18.581,36h37.161Z"/><path class="cls-1" d="M978.581,66.951v24H966.194v-39l23.287-45h15.484l23.164,45v39h-12.387v-24Zm18.58-48-18.58,36h37.161Z"/><path class="cls-1" d="M1052.9,66.951v24h-12.387v-39l23.287-45h15.484l23.165,45v39h-12.387v-24Zm18.581-48-18.581,36h37.162Z"/><path class="cls-1" d="M1127.226,66.951v24h-12.387v-39l23.287-45h15.484l23.164,45v39h-12.387v-24Zm18.58-48-18.58,36h37.161Z"/><path class="cls-1" d="M1201.548,66.951v24h-12.387v-39l23.288-45h15.483l23.165,45v39H1238.71v-24Zm18.581-48-18.581,36h37.162Z"/><path class="cls-1" d="M1275.871,66.951v24h-12.387v-39l23.287-45h15.484l23.164,45v39h-12.387v-24Zm18.581-48-18.581,36h37.161Z"/><path class="cls-1" d="M1350.194,66.951v24h-12.388v-39l23.288-45h15.484l23.164,45v39h-12.387v-24Zm18.58-48-18.58,36h37.161Z"/><path class="cls-1" d="M1424.516,66.951v24h-12.387v-39l23.287-45H1450.9l23.165,45v39h-12.388v-24Zm18.581-48-18.581,36h37.161Z"/><path class="cls-1" d="M1498.839,66.951v24h-12.387v-39l23.287-45h15.484l23.164,45v39H1536v-24Zm18.58-48-18.58,36H1536Z"/><path class="cls-1" d="M1573.161,66.951v24h-12.387v-39l23.287-45h15.484l23.165,45v39h-12.387v-24Zm18.581-48-18.581,36h37.162Z"/><path class="cls-1" d="M1647.484,66.951v24H1635.1v-39l23.287-45h15.484l23.164,45v39h-12.387v-24Zm18.581-48-18.581,36h37.161Z"/><path class="cls-1" d="M1721.806,66.951v24h-12.387v-39l23.288-45h15.484l23.164,45v39h-12.387v-24Zm18.581-48-18.581,36h37.162Z"/><path class="cls-1" d="M1796.129,66.951v24h-12.387v-39l23.287-45h15.484l23.164,45v39H1833.29v-24Zm18.581-48-18.581,36h37.161Z"/><path class="cls-1" d="M1870.452,66.951v24h-12.387v-39l23.287-45h15.484l23.164,45v39h-12.387v-24Zm18.58-48-18.58,36h37.161Z"/><path class="cls-1" d="M12.387,175.951v24H0v-39l23.288-45H38.772l23.163,45v39H49.548v-24Zm18.581-48-18.581,36H49.548Z"/><path class="cls-1" d="M86.71,175.951v24H74.323v-39l23.287-45h15.484l23.164,45v39H123.871v-24Zm18.58-48-18.58,36h37.161Z"/><path class="cls-1" d="M161.032,175.951v24H148.645v-39l23.288-45h15.484l23.164,45v39H198.194v-24Zm18.581-48-18.581,36h37.162Z"/><path class="cls-1" d="M235.355,175.951v24H222.968v-39l23.288-45h15.483l23.164,45v39H272.516v-24Zm18.58-48-18.58,36h37.161Z"/><path class="cls-1" d="M309.677,175.951v24H297.29v-39l23.288-45h15.484l23.164,45v39H346.839v-24Zm18.581-48-18.581,36h37.162Z"/><path class="cls-1" d="M384,175.951v24H371.613v-39l23.288-45h15.484l23.163,45v39H421.161v-24Zm18.581-48-18.581,36h37.161Z"/><path class="cls-1" d="M458.323,175.951v24H445.935v-39l23.288-45h15.484l23.164,45v39H495.484v-24Zm18.58-48-18.58,36h37.161Z"/><path class="cls-1" d="M532.645,175.951v24H520.258v-39l23.288-45H559.03l23.164,45v39H569.806v-24Zm18.581-48-18.581,36h37.161Z"/><path class="cls-1" d="M606.968,175.951v24H594.581v-39l23.287-45h15.484l23.164,45v39H644.129v-24Zm18.58-48-18.58,36h37.161Z"/><path class="cls-1" d="M681.29,175.951v24H668.9v-39l23.288-45h15.484l23.164,45v39H718.452v-24Zm18.581-48-18.581,36h37.162Z"/><path class="cls-1" d="M755.613,175.951v24H743.226v-39l23.288-45H782l23.164,45v39H792.774v-24Zm18.581-48-18.581,36h37.161Z"/><path class="cls-1" d="M829.935,175.951v24H817.548v-39l23.288-45H856.32l23.164,45v39H867.1v-24Zm18.581-48-18.581,36H867.1Z"/><path class="cls-1" d="M904.258,175.951v24H891.871v-39l23.288-45h15.484l23.163,45v39H941.419v-24Zm18.581-48-18.581,36h37.161Z"/><path class="cls-1" d="M978.581,175.951v24H966.194v-39l23.287-45h15.484l23.164,45v39h-12.387v-24Zm18.58-48-18.58,36h37.161Z"/><path class="cls-1" d="M1052.9,175.951v24h-12.387v-39l23.287-45h15.484l23.165,45v39h-12.387v-24Zm18.581-48-18.581,36h37.162Z"/><path class="cls-1" d="M1127.226,175.951v24h-12.387v-39l23.287-45h15.484l23.164,45v39h-12.387v-24Zm18.58-48-18.58,36h37.161Z"/><path class="cls-1" d="M1201.548,175.951v24h-12.387v-39l23.288-45h15.483l23.165,45v39H1238.71v-24Zm18.581-48-18.581,36h37.162Z"/><path class="cls-1" d="M1275.871,175.951v24h-12.387v-39l23.287-45h15.484l23.164,45v39h-12.387v-24Zm18.581-48-18.581,36h37.161Z"/><path class="cls-1" d="M1350.194,175.951v24h-12.388v-39l23.288-45h15.484l23.164,45v39h-12.387v-24Zm18.58-48-18.58,36h37.161Z"/><path class="cls-1" d="M1424.516,175.951v24h-12.387v-39l23.287-45H1450.9l23.165,45v39h-12.388v-24Zm18.581-48-18.581,36h37.161Z"/><path class="cls-1" d="M1498.839,175.951v24h-12.387v-39l23.287-45h15.484l23.164,45v39H1536v-24Zm18.58-48-18.58,36H1536Z"/><path class="cls-1" d="M1573.161,175.951v24h-12.387v-39l23.287-45h15.484l23.165,45v39h-12.387v-24Zm18.581-48-18.581,36h37.162Z"/><path class="cls-1" d="M1647.484,175.951v24H1635.1v-39l23.287-45h15.484l23.164,45v39h-12.387v-24Zm18.581-48-18.581,36h37.161Z"/><path class="cls-1" d="M1721.806,175.951v24h-12.387v-39l23.288-45h15.484l23.164,45v39h-12.387v-24Zm18.581-48-18.581,36h37.162Z"/><path class="cls-1" d="M1796.129,175.951v24h-12.387v-39l23.287-45h15.484l23.164,45v39H1833.29v-24Zm18.581-48-18.581,36h37.161Z"/><path class="cls-1" d="M1870.452,175.951v24h-12.387v-39l23.287-45h15.484l23.164,45v39h-12.387v-24Zm18.58-48-18.58,36h37.161Z"/><path class="cls-1" d="M12.387,284.951v24H0v-39l23.288-45H38.772l23.163,45v39H49.548v-24Zm18.581-48-18.581,36H49.548Z"/><path class="cls-1" d="M86.71,284.951v24H74.323v-39l23.287-45h15.484l23.164,45v39H123.871v-24Zm18.58-48-18.58,36h37.161Z"/><path class="cls-1" d="M161.032,284.951v24H148.645v-39l23.288-45h15.484l23.164,45v39H198.194v-24Zm18.581-48-18.581,36h37.162Z"/><path class="cls-1" d="M235.355,284.951v24H222.968v-39l23.288-45h15.483l23.164,45v39H272.516v-24Zm18.58-48-18.58,36h37.161Z"/><path class="cls-1" d="M309.677,284.951v24H297.29v-39l23.288-45h15.484l23.164,45v39H346.839v-24Zm18.581-48-18.581,36h37.162Z"/><path class="cls-1" d="M384,284.951v24H371.613v-39l23.288-45h15.484l23.163,45v39H421.161v-24Zm18.581-48-18.581,36h37.161Z"/><path class="cls-1" d="M458.323,284.951v24H445.935v-39l23.288-45h15.484l23.164,45v39H495.484v-24Zm18.58-48-18.58,36h37.161Z"/><path class="cls-1" d="M532.645,284.951v24H520.258v-39l23.288-45H559.03l23.164,45v39H569.806v-24Zm18.581-48-18.581,36h37.161Z"/><path class="cls-1" d="M606.968,284.951v24H594.581v-39l23.287-45h15.484l23.164,45v39H644.129v-24Zm18.58-48-18.58,36h37.161Z"/><path class="cls-1" d="M681.29,284.951v24H668.9v-39l23.288-45h15.484l23.164,45v39H718.452v-24Zm18.581-48-18.581,36h37.162Z"/><path class="cls-1" d="M755.613,284.951v24H743.226v-39l23.288-45H782l23.164,45v39H792.774v-24Zm18.581-48-18.581,36h37.161Z"/><path class="cls-1" d="M829.935,284.951v24H817.548v-39l23.288-45H856.32l23.164,45v39H867.1v-24Zm18.581-48-18.581,36H867.1Z"/><path class="cls-1" d="M904.258,284.951v24H891.871v-39l23.288-45h15.484l23.163,45v39H941.419v-24Zm18.581-48-18.581,36h37.161Z"/><path class="cls-1" d="M978.581,284.951v24H966.194v-39l23.287-45h15.484l23.164,45v39h-12.387v-24Zm18.58-48-18.58,36h37.161Z"/><path class="cls-1" d="M1052.9,284.951v24h-12.387v-39l23.287-45h15.484l23.165,45v39h-12.387v-24Zm18.581-48-18.581,36h37.162Z"/><path class="cls-1" d="M1127.226,284.951v24h-12.387v-39l23.287-45h15.484l23.164,45v39h-12.387v-24Zm18.58-48-18.58,36h37.161Z"/><path class="cls-1" d="M1201.548,284.951v24h-12.387v-39l23.288-45h15.483l23.165,45v39H1238.71v-24Zm18.581-48-18.581,36h37.162Z"/><path class="cls-1" d="M1275.871,284.951v24h-12.387v-39l23.287-45h15.484l23.164,45v39h-12.387v-24Zm18.581-48-18.581,36h37.161Z"/><path class="cls-1" d="M1350.194,284.951v24h-12.388v-39l23.288-45h15.484l23.164,45v39h-12.387v-24Zm18.58-48-18.58,36h37.161Z"/><path class="cls-1" d="M1424.516,284.951v24h-12.387v-39l23.287-45H1450.9l23.165,45v39h-12.388v-24Zm18.581-48-18.581,36h37.161Z"/><path class="cls-1" d="M1498.839,284.951v24h-12.387v-39l23.287-45h15.484l23.164,45v39H1536v-24Zm18.58-48-18.58,36H1536Z"/><path class="cls-1" d="M1573.161,284.951v24h-12.387v-39l23.287-45h15.484l23.165,45v39h-12.387v-24Zm18.581-48-18.581,36h37.162Z"/><path class="cls-1" d="M1647.484,284.951v24H1635.1v-39l23.287-45h15.484l23.164,45v39h-12.387v-24Zm18.581-48-18.581,36h37.161Z"/><path class="cls-1" d="M1721.806,284.951v24h-12.387v-39l23.288-45h15.484l23.164,45v39h-12.387v-24Zm18.581-48-18.581,36h37.162Z"/><path class="cls-1" d="M1796.129,284.951v24h-12.387v-39l23.287-45h15.484l23.164,45v39H1833.29v-24Zm18.581-48-18.581,36h37.161Z"/><path class="cls-1" d="M1870.452,284.951v24h-12.387v-39l23.287-45h15.484l23.164,45v39h-12.387v-24Zm18.58-48-18.58,36h37.161Z"/><path class="cls-1" d="M12.387,393.951v24H0v-39l23.288-45H38.772l23.163,45v39H49.548v-24Zm18.581-48-18.581,36H49.548Z"/><path class="cls-1" d="M86.71,393.951v24H74.323v-39l23.287-45h15.484l23.164,45v39H123.871v-24Zm18.58-48-18.58,36h37.161Z"/><path class="cls-1" d="M161.032,393.951v24H148.645v-39l23.288-45h15.484l23.164,45v39H198.194v-24Zm18.581-48-18.581,36h37.162Z"/><path class="cls-1" d="M235.355,393.951v24H222.968v-39l23.288-45h15.483l23.164,45v39H272.516v-24Zm18.58-48-18.58,36h37.161Z"/><path class="cls-1" d="M309.677,393.951v24H297.29v-39l23.288-45h15.484l23.164,45v39H346.839v-24Zm18.581-48-18.581,36h37.162Z"/><path class="cls-1" d="M384,393.951v24H371.613v-39l23.288-45h15.484l23.163,45v39H421.161v-24Zm18.581-48-18.581,36h37.161Z"/><path class="cls-1" d="M458.323,393.951v24H445.935v-39l23.288-45h15.484l23.164,45v39H495.484v-24Zm18.58-48-18.58,36h37.161Z"/><path class="cls-1" d="M532.645,393.951v24H520.258v-39l23.288-45H559.03l23.164,45v39H569.806v-24Zm18.581-48-18.581,36h37.161Z"/><path class="cls-1" d="M606.968,393.951v24H594.581v-39l23.287-45h15.484l23.164,45v39H644.129v-24Zm18.58-48-18.58,36h37.161Z"/><path class="cls-1" d="M681.29,393.951v24H668.9v-39l23.288-45h15.484l23.164,45v39H718.452v-24Zm18.581-48-18.581,36h37.162Z"/><path class="cls-1" d="M755.613,393.951v24H743.226v-39l23.288-45H782l23.164,45v39H792.774v-24Zm18.581-48-18.581,36h37.161Z"/><path class="cls-1" d="M829.935,393.951v24H817.548v-39l23.288-45H856.32l23.164,45v39H867.1v-24Zm18.581-48-18.581,36H867.1Z"/><path class="cls-1" d="M904.258,393.951v24H891.871v-39l23.288-45h15.484l23.163,45v39H941.419v-24Zm18.581-48-18.581,36h37.161Z"/><path class="cls-1" d="M978.581,393.951v24H966.194v-39l23.287-45h15.484l23.164,45v39h-12.387v-24Zm18.58-48-18.58,36h37.161Z"/><path class="cls-1" d="M1052.9,393.951v24h-12.387v-39l23.287-45h15.484l23.165,45v39h-12.387v-24Zm18.581-48-18.581,36h37.162Z"/><path class="cls-1" d="M1127.226,393.951v24h-12.387v-39l23.287-45h15.484l23.164,45v39h-12.387v-24Zm18.58-48-18.58,36h37.161Z"/><path class="cls-1" d="M1201.548,393.951v24h-12.387v-39l23.288-45h15.483l23.165,45v39H1238.71v-24Zm18.581-48-18.581,36h37.162Z"/><path class="cls-1" d="M1275.871,393.951v24h-12.387v-39l23.287-45h15.484l23.164,45v39h-12.387v-24Zm18.581-48-18.581,36h37.161Z"/><path class="cls-1" d="M1350.194,393.951v24h-12.388v-39l23.288-45h15.484l23.164,45v39h-12.387v-24Zm18.58-48-18.58,36h37.161Z"/><path class="cls-1" d="M1424.516,393.951v24h-12.387v-39l23.287-45H1450.9l23.165,45v39h-12.388v-24Zm18.581-48-18.581,36h37.161Z"/><path class="cls-1" d="M1498.839,393.951v24h-12.387v-39l23.287-45h15.484l23.164,45v39H1536v-24Zm18.58-48-18.58,36H1536Z"/><path class="cls-1" d="M1573.161,393.951v24h-12.387v-39l23.287-45h15.484l23.165,45v39h-12.387v-24Zm18.581-48-18.581,36h37.162Z"/><path class="cls-1" d="M1647.484,393.951v24H1635.1v-39l23.287-45h15.484l23.164,45v39h-12.387v-24Zm18.581-48-18.581,36h37.161Z"/><path class="cls-1" d="M1721.806,393.951v24h-12.387v-39l23.288-45h15.484l23.164,45v39h-12.387v-24Zm18.581-48-18.581,36h37.162Z"/><path class="cls-1" d="M1796.129,393.951v24h-12.387v-39l23.287-45h15.484l23.164,45v39H1833.29v-24Zm18.581-48-18.581,36h37.161Z"/><path class="cls-1" d="M1870.452,393.951v24h-12.387v-39l23.287-45h15.484l23.164,45v39h-12.387v-24Zm18.58-48-18.58,36h37.161Z"/><path class="cls-1" d="M12.387,502.951v24H0v-39l23.288-45H38.772l23.163,45v39H49.548v-24Zm18.581-48-18.581,36H49.548Z"/><path class="cls-1" d="M86.71,502.951v24H74.323v-39l23.287-45h15.484l23.164,45v39H123.871v-24Zm18.58-48-18.58,36h37.161Z"/><path class="cls-1" d="M161.032,502.951v24H148.645v-39l23.288-45h15.484l23.164,45v39H198.194v-24Zm18.581-48-18.581,36h37.162Z"/><path class="cls-1" d="M235.355,502.951v24H222.968v-39l23.288-45h15.483l23.164,45v39H272.516v-24Zm18.58-48-18.58,36h37.161Z"/><path class="cls-1" d="M309.677,502.951v24H297.29v-39l23.288-45h15.484l23.164,45v39H346.839v-24Zm18.581-48-18.581,36h37.162Z"/><path class="cls-1" d="M384,502.951v24H371.613v-39l23.288-45h15.484l23.163,45v39H421.161v-24Zm18.581-48-18.581,36h37.161Z"/><path class="cls-1" d="M458.323,502.951v24H445.935v-39l23.288-45h15.484l23.164,45v39H495.484v-24Zm18.58-48-18.58,36h37.161Z"/><path class="cls-1" d="M532.645,502.951v24H520.258v-39l23.288-45H559.03l23.164,45v39H569.806v-24Zm18.581-48-18.581,36h37.161Z"/><path class="cls-1" d="M606.968,502.951v24H594.581v-39l23.287-45h15.484l23.164,45v39H644.129v-24Zm18.58-48-18.58,36h37.161Z"/><path class="cls-1" d="M681.29,502.951v24H668.9v-39l23.288-45h15.484l23.164,45v39H718.452v-24Zm18.581-48-18.581,36h37.162Z"/><path class="cls-1" d="M755.613,502.951v24H743.226v-39l23.288-45H782l23.164,45v39H792.774v-24Zm18.581-48-18.581,36h37.161Z"/><path class="cls-1" d="M829.935,502.951v24H817.548v-39l23.288-45H856.32l23.164,45v39H867.1v-24Zm18.581-48-18.581,36H867.1Z"/><path class="cls-1" d="M904.258,502.951v24H891.871v-39l23.288-45h15.484l23.163,45v39H941.419v-24Zm18.581-48-18.581,36h37.161Z"/><path class="cls-1" d="M978.581,502.951v24H966.194v-39l23.287-45h15.484l23.164,45v39h-12.387v-24Zm18.58-48-18.58,36h37.161Z"/><path class="cls-1" d="M1052.9,502.951v24h-12.387v-39l23.287-45h15.484l23.165,45v39h-12.387v-24Zm18.581-48-18.581,36h37.162Z"/><path class="cls-1" d="M1127.226,502.951v24h-12.387v-39l23.287-45h15.484l23.164,45v39h-12.387v-24Zm18.58-48-18.58,36h37.161Z"/><path class="cls-1" d="M1201.548,502.951v24h-12.387v-39l23.288-45h15.483l23.165,45v39H1238.71v-24Zm18.581-48-18.581,36h37.162Z"/><path class="cls-1" d="M1275.871,502.951v24h-12.387v-39l23.287-45h15.484l23.164,45v39h-12.387v-24Zm18.581-48-18.581,36h37.161Z"/><path class="cls-1" d="M1350.194,502.951v24h-12.388v-39l23.288-45h15.484l23.164,45v39h-12.387v-24Zm18.58-48-18.58,36h37.161Z"/><path class="cls-1" d="M1424.516,502.951v24h-12.387v-39l23.287-45H1450.9l23.165,45v39h-12.388v-24Zm18.581-48-18.581,36h37.161Z"/><path class="cls-1" d="M1498.839,502.951v24h-12.387v-39l23.287-45h15.484l23.164,45v39H1536v-24Zm18.58-48-18.58,36H1536Z"/><path class="cls-1" d="M1573.161,502.951v24h-12.387v-39l23.287-45h15.484l23.165,45v39h-12.387v-24Zm18.581-48-18.581,36h37.162Z"/><path class="cls-1" d="M1647.484,502.951v24H1635.1v-39l23.287-45h15.484l23.164,45v39h-12.387v-24Zm18.581-48-18.581,36h37.161Z"/><path class="cls-1" d="M1721.806,502.951v24h-12.387v-39l23.288-45h15.484l23.164,45v39h-12.387v-24Zm18.581-48-18.581,36h37.162Z"/><path class="cls-1" d="M1796.129,502.951v24h-12.387v-39l23.287-45h15.484l23.164,45v39H1833.29v-24Zm18.581-48-18.581,36h37.161Z"/><path class="cls-1" d="M1870.452,502.951v24h-12.387v-39l23.287-45h15.484l23.164,45v39h-12.387v-24Zm18.58-48-18.58,36h37.161Z"/><path class="cls-1" d="M12.387,611.951v24H0v-39l23.288-45H38.772l23.163,45v39H49.548v-24Zm18.581-48-18.581,36H49.548Z"/><path class="cls-1" d="M86.71,611.951v24H74.323v-39l23.287-45h15.484l23.164,45v39H123.871v-24Zm18.58-48-18.58,36h37.161Z"/><path class="cls-1" d="M161.032,611.951v24H148.645v-39l23.288-45h15.484l23.164,45v39H198.194v-24Zm18.581-48-18.581,36h37.162Z"/><path class="cls-1" d="M235.355,611.951v24H222.968v-39l23.288-45h15.483l23.164,45v39H272.516v-24Zm18.58-48-18.58,36h37.161Z"/><path class="cls-1" d="M309.677,611.951v24H297.29v-39l23.288-45h15.484l23.164,45v39H346.839v-24Zm18.581-48-18.581,36h37.162Z"/><path class="cls-1" d="M384,611.951v24H371.613v-39l23.288-45h15.484l23.163,45v39H421.161v-24Zm18.581-48-18.581,36h37.161Z"/><path class="cls-1" d="M458.323,611.951v24H445.935v-39l23.288-45h15.484l23.164,45v39H495.484v-24Zm18.58-48-18.58,36h37.161Z"/><path class="cls-1" d="M532.645,611.951v24H520.258v-39l23.288-45H559.03l23.164,45v39H569.806v-24Zm18.581-48-18.581,36h37.161Z"/><path class="cls-1" d="M606.968,611.951v24H594.581v-39l23.287-45h15.484l23.164,45v39H644.129v-24Zm18.58-48-18.58,36h37.161Z"/><path class="cls-1" d="M681.29,611.951v24H668.9v-39l23.288-45h15.484l23.164,45v39H718.452v-24Zm18.581-48-18.581,36h37.162Z"/><path class="cls-1" d="M755.613,611.951v24H743.226v-39l23.288-45H782l23.164,45v39H792.774v-24Zm18.581-48-18.581,36h37.161Z"/><path class="cls-1" d="M829.935,611.951v24H817.548v-39l23.288-45H856.32l23.164,45v39H867.1v-24Zm18.581-48-18.581,36H867.1Z"/><path class="cls-1" d="M904.258,611.951v24H891.871v-39l23.288-45h15.484l23.163,45v39H941.419v-24Zm18.581-48-18.581,36h37.161Z"/><path class="cls-1" d="M978.581,611.951v24H966.194v-39l23.287-45h15.484l23.164,45v39h-12.387v-24Zm18.58-48-18.58,36h37.161Z"/><path class="cls-1" d="M1052.9,611.951v24h-12.387v-39l23.287-45h15.484l23.165,45v39h-12.387v-24Zm18.581-48-18.581,36h37.162Z"/><path class="cls-1" d="M1127.226,611.951v24h-12.387v-39l23.287-45h15.484l23.164,45v39h-12.387v-24Zm18.58-48-18.58,36h37.161Z"/><path class="cls-1" d="M1201.548,611.951v24h-12.387v-39l23.288-45h15.483l23.165,45v39H1238.71v-24Zm18.581-48-18.581,36h37.162Z"/><path class="cls-1" d="M1275.871,611.951v24h-12.387v-39l23.287-45h15.484l23.164,45v39h-12.387v-24Zm18.581-48-18.581,36h37.161Z"/><path class="cls-1" d="M1350.194,611.951v24h-12.388v-39l23.288-45h15.484l23.164,45v39h-12.387v-24Zm18.58-48-18.58,36h37.161Z"/><path class="cls-1" d="M1424.516,611.951v24h-12.387v-39l23.287-45H1450.9l23.165,45v39h-12.388v-24Zm18.581-48-18.581,36h37.161Z"/><path class="cls-1" d="M1498.839,611.951v24h-12.387v-39l23.287-45h15.484l23.164,45v39H1536v-24Zm18.58-48-18.58,36H1536Z"/><path class="cls-1" d="M1573.161,611.951v24h-12.387v-39l23.287-45h15.484l23.165,45v39h-12.387v-24Zm18.581-48-18.581,36h37.162Z"/><path class="cls-1" d="M1647.484,611.951v24H1635.1v-39l23.287-45h15.484l23.164,45v39h-12.387v-24Zm18.581-48-18.581,36h37.161Z"/><path class="cls-1" d="M1721.806,611.951v24h-12.387v-39l23.288-45h15.484l23.164,45v39h-12.387v-24Zm18.581-48-18.581,36h37.162Z"/><path class="cls-1" d="M1796.129,611.951v24h-12.387v-39l23.287-45h15.484l23.164,45v39H1833.29v-24Zm18.581-48-18.581,36h37.161Z"/><path class="cls-1" d="M1870.452,611.951v24h-12.387v-39l23.287-45h15.484l23.164,45v39h-12.387v-24Zm18.58-48-18.58,36h37.161Z"/><path class="cls-1" d="M12.387,720.951v24H0v-39l23.288-45H38.772l23.163,45v39H49.548v-24Zm18.581-48-18.581,36H49.548Z"/><path class="cls-1" d="M86.71,720.951v24H74.323v-39l23.287-45h15.484l23.164,45v39H123.871v-24Zm18.58-48-18.58,36h37.161Z"/><path class="cls-1" d="M161.032,720.951v24H148.645v-39l23.288-45h15.484l23.164,45v39H198.194v-24Zm18.581-48-18.581,36h37.162Z"/><path class="cls-1" d="M235.355,720.951v24H222.968v-39l23.288-45h15.483l23.164,45v39H272.516v-24Zm18.58-48-18.58,36h37.161Z"/><path class="cls-1" d="M309.677,720.951v24H297.29v-39l23.288-45h15.484l23.164,45v39H346.839v-24Zm18.581-48-18.581,36h37.162Z"/><path class="cls-1" d="M384,720.951v24H371.613v-39l23.288-45h15.484l23.163,45v39H421.161v-24Zm18.581-48-18.581,36h37.161Z"/><path class="cls-1" d="M458.323,720.951v24H445.935v-39l23.288-45h15.484l23.164,45v39H495.484v-24Zm18.58-48-18.58,36h37.161Z"/><path class="cls-1" d="M532.645,720.951v24H520.258v-39l23.288-45H559.03l23.164,45v39H569.806v-24Zm18.581-48-18.581,36h37.161Z"/><path class="cls-1" d="M606.968,720.951v24H594.581v-39l23.287-45h15.484l23.164,45v39H644.129v-24Zm18.58-48-18.58,36h37.161Z"/><path class="cls-1" d="M681.29,720.951v24H668.9v-39l23.288-45h15.484l23.164,45v39H718.452v-24Zm18.581-48-18.581,36h37.162Z"/><path class="cls-1" d="M755.613,720.951v24H743.226v-39l23.288-45H782l23.164,45v39H792.774v-24Zm18.581-48-18.581,36h37.161Z"/><path class="cls-1" d="M829.935,720.951v24H817.548v-39l23.288-45H856.32l23.164,45v39H867.1v-24Zm18.581-48-18.581,36H867.1Z"/><path class="cls-1" d="M904.258,720.951v24H891.871v-39l23.288-45h15.484l23.163,45v39H941.419v-24Zm18.581-48-18.581,36h37.161Z"/><path class="cls-1" d="M978.581,720.951v24H966.194v-39l23.287-45h15.484l23.164,45v39h-12.387v-24Zm18.58-48-18.58,36h37.161Z"/><path class="cls-1" d="M1052.9,720.951v24h-12.387v-39l23.287-45h15.484l23.165,45v39h-12.387v-24Zm18.581-48-18.581,36h37.162Z"/><path class="cls-1" d="M1127.226,720.951v24h-12.387v-39l23.287-45h15.484l23.164,45v39h-12.387v-24Zm18.58-48-18.58,36h37.161Z"/><path class="cls-1" d="M1201.548,720.951v24h-12.387v-39l23.288-45h15.483l23.165,45v39H1238.71v-24Zm18.581-48-18.581,36h37.162Z"/><path class="cls-1" d="M1275.871,720.951v24h-12.387v-39l23.287-45h15.484l23.164,45v39h-12.387v-24Zm18.581-48-18.581,36h37.161Z"/><path class="cls-1" d="M1350.194,720.951v24h-12.388v-39l23.288-45h15.484l23.164,45v39h-12.387v-24Zm18.58-48-18.58,36h37.161Z"/><path class="cls-1" d="M1424.516,720.951v24h-12.387v-39l23.287-45H1450.9l23.165,45v39h-12.388v-24Zm18.581-48-18.581,36h37.161Z"/><path class="cls-1" d="M1498.839,720.951v24h-12.387v-39l23.287-45h15.484l23.164,45v39H1536v-24Zm18.58-48-18.58,36H1536Z"/><path class="cls-1" d="M1573.161,720.951v24h-12.387v-39l23.287-45h15.484l23.165,45v39h-12.387v-24Zm18.581-48-18.581,36h37.162Z"/><path class="cls-1" d="M1647.484,720.951v24H1635.1v-39l23.287-45h15.484l23.164,45v39h-12.387v-24Zm18.581-48-18.581,36h37.161Z"/><path class="cls-1" d="M1721.806,720.951v24h-12.387v-39l23.288-45h15.484l23.164,45v39h-12.387v-24Zm18.581-48-18.581,36h37.162Z"/><path class="cls-1" d="M1796.129,720.951v24h-12.387v-39l23.287-45h15.484l23.164,45v39H1833.29v-24Zm18.581-48-18.581,36h37.161Z"/><path class="cls-1" d="M1870.452,720.951v24h-12.387v-39l23.287-45h15.484l23.164,45v39h-12.387v-24Zm18.58-48-18.58,36h37.161Z"/><path class="cls-1" d="M12.387,829.951v24H0v-39l23.288-45H38.772l23.163,45v39H49.548v-24Zm18.581-48-18.581,36H49.548Z"/><path class="cls-1" d="M86.71,829.951v24H74.323v-39l23.287-45h15.484l23.164,45v39H123.871v-24Zm18.58-48-18.58,36h37.161Z"/><path class="cls-1" d="M161.032,829.951v24H148.645v-39l23.288-45h15.484l23.164,45v39H198.194v-24Zm18.581-48-18.581,36h37.162Z"/><path class="cls-1" d="M235.355,829.951v24H222.968v-39l23.288-45h15.483l23.164,45v39H272.516v-24Zm18.58-48-18.58,36h37.161Z"/><path class="cls-1" d="M309.677,829.951v24H297.29v-39l23.288-45h15.484l23.164,45v39H346.839v-24Zm18.581-48-18.581,36h37.162Z"/><path class="cls-1" d="M384,829.951v24H371.613v-39l23.288-45h15.484l23.163,45v39H421.161v-24Zm18.581-48-18.581,36h37.161Z"/><path class="cls-1" d="M458.323,829.951v24H445.935v-39l23.288-45h15.484l23.164,45v39H495.484v-24Zm18.58-48-18.58,36h37.161Z"/><path class="cls-1" d="M532.645,829.951v24H520.258v-39l23.288-45H559.03l23.164,45v39H569.806v-24Zm18.581-48-18.581,36h37.161Z"/><path class="cls-1" d="M606.968,829.951v24H594.581v-39l23.287-45h15.484l23.164,45v39H644.129v-24Zm18.58-48-18.58,36h37.161Z"/><path class="cls-1" d="M681.29,829.951v24H668.9v-39l23.288-45h15.484l23.164,45v39H718.452v-24Zm18.581-48-18.581,36h37.162Z"/><path class="cls-1" d="M755.613,829.951v24H743.226v-39l23.288-45H782l23.164,45v39H792.774v-24Zm18.581-48-18.581,36h37.161Z"/><path class="cls-1" d="M829.935,829.951v24H817.548v-39l23.288-45H856.32l23.164,45v39H867.1v-24Zm18.581-48-18.581,36H867.1Z"/><path class="cls-1" d="M904.258,829.951v24H891.871v-39l23.288-45h15.484l23.163,45v39H941.419v-24Zm18.581-48-18.581,36h37.161Z"/><path class="cls-1" d="M978.581,829.951v24H966.194v-39l23.287-45h15.484l23.164,45v39h-12.387v-24Zm18.58-48-18.58,36h37.161Z"/><path class="cls-1" d="M1052.9,829.951v24h-12.387v-39l23.287-45h15.484l23.165,45v39h-12.387v-24Zm18.581-48-18.581,36h37.162Z"/><path class="cls-1" d="M1127.226,829.951v24h-12.387v-39l23.287-45h15.484l23.164,45v39h-12.387v-24Zm18.58-48-18.58,36h37.161Z"/><path class="cls-1" d="M1201.548,829.951v24h-12.387v-39l23.288-45h15.483l23.165,45v39H1238.71v-24Zm18.581-48-18.581,36h37.162Z"/><path class="cls-1" d="M1275.871,829.951v24h-12.387v-39l23.287-45h15.484l23.164,45v39h-12.387v-24Zm18.581-48-18.581,36h37.161Z"/><path class="cls-1" d="M1350.194,829.951v24h-12.388v-39l23.288-45h15.484l23.164,45v39h-12.387v-24Zm18.58-48-18.58,36h37.161Z"/><path class="cls-1" d="M1424.516,829.951v24h-12.387v-39l23.287-45H1450.9l23.165,45v39h-12.388v-24Zm18.581-48-18.581,36h37.161Z"/><path class="cls-1" d="M1498.839,829.951v24h-12.387v-39l23.287-45h15.484l23.164,45v39H1536v-24Zm18.58-48-18.58,36H1536Z"/><path class="cls-1" d="M1573.161,829.951v24h-12.387v-39l23.287-45h15.484l23.165,45v39h-12.387v-24Zm18.581-48-18.581,36h37.162Z"/><path class="cls-1" d="M1647.484,829.951v24H1635.1v-39l23.287-45h15.484l23.164,45v39h-12.387v-24Zm18.581-48-18.581,36h37.161Z"/><path class="cls-1" d="M1721.806,829.951v24h-12.387v-39l23.288-45h15.484l23.164,45v39h-12.387v-24Zm18.581-48-18.581,36h37.162Z"/><path class="cls-1" d="M1796.129,829.951v24h-12.387v-39l23.287-45h15.484l23.164,45v39H1833.29v-24Zm18.581-48-18.581,36h37.161Z"/><path class="cls-1" d="M1870.452,829.951v24h-12.387v-39l23.287-45h15.484l23.164,45v39h-12.387v-24Zm18.58-48-18.58,36h37.161Z"/><path class="cls-1" d="M12.387,938.951v24H0v-39l23.288-45H38.772l23.163,45v39H49.548v-24Zm18.581-48-18.581,36H49.548Z"/><path class="cls-1" d="M86.71,938.951v24H74.323v-39l23.287-45h15.484l23.164,45v39H123.871v-24Zm18.58-48-18.58,36h37.161Z"/><path class="cls-1" d="M161.032,938.951v24H148.645v-39l23.288-45h15.484l23.164,45v39H198.194v-24Zm18.581-48-18.581,36h37.162Z"/><path class="cls-1" d="M235.355,938.951v24H222.968v-39l23.288-45h15.483l23.164,45v39H272.516v-24Zm18.58-48-18.58,36h37.161Z"/><path class="cls-1" d="M309.677,938.951v24H297.29v-39l23.288-45h15.484l23.164,45v39H346.839v-24Zm18.581-48-18.581,36h37.162Z"/><path class="cls-1" d="M384,938.951v24H371.613v-39l23.288-45h15.484l23.163,45v39H421.161v-24Zm18.581-48-18.581,36h37.161Z"/><path class="cls-1" d="M458.323,938.951v24H445.935v-39l23.288-45h15.484l23.164,45v39H495.484v-24Zm18.58-48-18.58,36h37.161Z"/><path class="cls-1" d="M532.645,938.951v24H520.258v-39l23.288-45H559.03l23.164,45v39H569.806v-24Zm18.581-48-18.581,36h37.161Z"/><path class="cls-1" d="M606.968,938.951v24H594.581v-39l23.287-45h15.484l23.164,45v39H644.129v-24Zm18.58-48-18.58,36h37.161Z"/><path class="cls-1" d="M681.29,938.951v24H668.9v-39l23.288-45h15.484l23.164,45v39H718.452v-24Zm18.581-48-18.581,36h37.162Z"/><path class="cls-1" d="M755.613,938.951v24H743.226v-39l23.288-45H782l23.164,45v39H792.774v-24Zm18.581-48-18.581,36h37.161Z"/><path class="cls-1" d="M829.935,938.951v24H817.548v-39l23.288-45H856.32l23.164,45v39H867.1v-24Zm18.581-48-18.581,36H867.1Z"/><path class="cls-1" d="M904.258,938.951v24H891.871v-39l23.288-45h15.484l23.163,45v39H941.419v-24Zm18.581-48-18.581,36h37.161Z"/><path class="cls-1" d="M978.581,938.951v24H966.194v-39l23.287-45h15.484l23.164,45v39h-12.387v-24Zm18.58-48-18.58,36h37.161Z"/><path class="cls-1" d="M1052.9,938.951v24h-12.387v-39l23.287-45h15.484l23.165,45v39h-12.387v-24Zm18.581-48-18.581,36h37.162Z"/><path class="cls-1" d="M1127.226,938.951v24h-12.387v-39l23.287-45h15.484l23.164,45v39h-12.387v-24Zm18.58-48-18.58,36h37.161Z"/><path class="cls-1" d="M1201.548,938.951v24h-12.387v-39l23.288-45h15.483l23.165,45v39H1238.71v-24Zm18.581-48-18.581,36h37.162Z"/><path class="cls-1" d="M1275.871,938.951v24h-12.387v-39l23.287-45h15.484l23.164,45v39h-12.387v-24Zm18.581-48-18.581,36h37.161Z"/><path class="cls-1" d="M1350.194,938.951v24h-12.388v-39l23.288-45h15.484l23.164,45v39h-12.387v-24Zm18.58-48-18.58,36h37.161Z"/><path class="cls-1" d="M1424.516,938.951v24h-12.387v-39l23.287-45H1450.9l23.165,45v39h-12.388v-24Zm18.581-48-18.581,36h37.161Z"/><path class="cls-1" d="M1498.839,938.951v24h-12.387v-39l23.287-45h15.484l23.164,45v39H1536v-24Zm18.58-48-18.58,36H1536Z"/><path class="cls-1" d="M1573.161,938.951v24h-12.387v-39l23.287-45h15.484l23.165,45v39h-12.387v-24Zm18.581-48-18.581,36h37.162Z"/><path class="cls-1" d="M1647.484,938.951v24H1635.1v-39l23.287-45h15.484l23.164,45v39h-12.387v-24Zm18.581-48-18.581,36h37.161Z"/><path class="cls-1" d="M1721.806,938.951v24h-12.387v-39l23.288-45h15.484l23.164,45v39h-12.387v-24Zm18.581-48-18.581,36h37.162Z"/><path class="cls-1" d="M1796.129,938.951v24h-12.387v-39l23.287-45h15.484l23.164,45v39H1833.29v-24Zm18.581-48-18.581,36h37.161Z"/><path class="cls-1" d="M1870.452,938.951v24h-12.387v-39l23.287-45h15.484l23.164,45v39h-12.387v-24Zm18.58-48-18.58,36h37.161Z"/><path class="cls-1" d="M12.387,1047.951v24H0v-39l23.288-45H38.772l23.163,45v39H49.548v-24Zm18.581-48-18.581,36H49.548Z"/><path class="cls-1" d="M86.71,1047.951v24H74.323v-39l23.287-45h15.484l23.164,45v39H123.871v-24Zm18.58-48-18.58,36h37.161Z"/><path class="cls-1" d="M161.032,1047.951v24H148.645v-39l23.288-45h15.484l23.164,45v39H198.194v-24Zm18.581-48-18.581,36h37.162Z"/><path class="cls-1" d="M235.355,1047.951v24H222.968v-39l23.288-45h15.483l23.164,45v39H272.516v-24Zm18.58-48-18.58,36h37.161Z"/><path class="cls-1" d="M309.677,1047.951v24H297.29v-39l23.288-45h15.484l23.164,45v39H346.839v-24Zm18.581-48-18.581,36h37.162Z"/><path class="cls-1" d="M384,1047.951v24H371.613v-39l23.288-45h15.484l23.163,45v39H421.161v-24Zm18.581-48-18.581,36h37.161Z"/><path class="cls-1" d="M458.323,1047.951v24H445.935v-39l23.288-45h15.484l23.164,45v39H495.484v-24Zm18.58-48-18.58,36h37.161Z"/><path class="cls-1" d="M532.645,1047.951v24H520.258v-39l23.288-45H559.03l23.164,45v39H569.806v-24Zm18.581-48-18.581,36h37.161Z"/><path class="cls-1" d="M606.968,1047.951v24H594.581v-39l23.287-45h15.484l23.164,45v39H644.129v-24Zm18.58-48-18.58,36h37.161Z"/><path class="cls-1" d="M681.29,1047.951v24H668.9v-39l23.288-45h15.484l23.164,45v39H718.452v-24Zm18.581-48-18.581,36h37.162Z"/><path class="cls-1" d="M755.613,1047.951v24H743.226v-39l23.288-45H782l23.164,45v39H792.774v-24Zm18.581-48-18.581,36h37.161Z"/><path class="cls-1" d="M829.935,1047.951v24H817.548v-39l23.288-45H856.32l23.164,45v39H867.1v-24Zm18.581-48-18.581,36H867.1Z"/><path class="cls-1" d="M904.258,1047.951v24H891.871v-39l23.288-45h15.484l23.163,45v39H941.419v-24Zm18.581-48-18.581,36h37.161Z"/><path class="cls-1" d="M978.581,1047.951v24H966.194v-39l23.287-45h15.484l23.164,45v39h-12.387v-24Zm18.58-48-18.58,36h37.161Z"/><path class="cls-1" d="M1052.9,1047.951v24h-12.387v-39l23.287-45h15.484l23.165,45v39h-12.387v-24Zm18.581-48-18.581,36h37.162Z"/><path class="cls-1" d="M1127.226,1047.951v24h-12.387v-39l23.287-45h15.484l23.164,45v39h-12.387v-24Zm18.58-48-18.58,36h37.161Z"/><path class="cls-1" d="M1201.548,1047.951v24h-12.387v-39l23.288-45h15.483l23.165,45v39H1238.71v-24Zm18.581-48-18.581,36h37.162Z"/><path class="cls-1" d="M1275.871,1047.951v24h-12.387v-39l23.287-45h15.484l23.164,45v39h-12.387v-24Zm18.581-48-18.581,36h37.161Z"/><path class="cls-1" d="M1350.194,1047.951v24h-12.388v-39l23.288-45h15.484l23.164,45v39h-12.387v-24Zm18.58-48-18.58,36h37.161Z"/><path class="cls-1" d="M1424.516,1047.951v24h-12.387v-39l23.287-45H1450.9l23.165,45v39h-12.388v-24Zm18.581-48-18.581,36h37.161Z"/><path class="cls-1" d="M1498.839,1047.951v24h-12.387v-39l23.287-45h15.484l23.164,45v39H1536v-24Zm18.58-48-18.58,36H1536Z"/><path class="cls-1" d="M1573.161,1047.951v24h-12.387v-39l23.287-45h15.484l23.165,45v39h-12.387v-24Zm18.581-48-18.581,36h37.162Z"/><path class="cls-1" d="M1647.484,1047.951v24H1635.1v-39l23.287-45h15.484l23.164,45v39h-12.387v-24Zm18.581-48-18.581,36h37.161Z"/><path class="cls-1" d="M1721.806,1047.951v24h-12.387v-39l23.288-45h15.484l23.164,45v39h-12.387v-24Zm18.581-48-18.581,36h37.162Z"/><path class="cls-1" d="M1796.129,1047.951v24h-12.387v-39l23.287-45h15.484l23.164,45v39H1833.29v-24Zm18.581-48-18.581,36h37.161Z"/><path class="cls-1" d="M1870.452,1047.951v24h-12.387v-39l23.287-45h15.484l23.164,45v39h-12.387v-24Zm18.58-48-18.58,36h37.161Z"/></svg>